<svg width="371" height="120" viewBox="0 0 371 120" fill="none" xmlns="http://www.w3.org/2000/svg">
<path d="M9.2216 40.076V18.8496C9.2216 10.8728 15.0352 0.0568013 25.9864 0.0568013H42.3456V22.5H36.6672C34.7744 22.5 32.7464 24.1224 32.7464 27.908V46.9712C32.7464 51.2976 29.3664 57.1112 21.9304 59.4096C24.6344 60.2208 27.6088 61.4376 29.6368 63.4656C31.6648 65.4936 32.7464 68.0624 32.7464 71.0368V92.804C32.7464 96.3192 34.6392 96.4544 37.7488 96.4544H42.3456V119.303H27.4736C23.5528 119.303 18.956 117.275 15.576 114.03C12.4664 111.191 8.9512 106.054 8.9512 97.6712V76.3096C8.9512 73.4704 6.6528 70.496 1.7856 70.496H0.704V48.3232H1.7856C8.0048 48.3232 9.2216 45.484 9.2216 40.076ZM133.694 12.9008V107H107.736V72.7944H89.8895V107H63.9311V12.9008H89.8895V46.836H107.736V12.9008H133.694ZM160.824 108.487C151.901 108.487 146.493 104.161 143.519 100.646C139.868 96.184 137.705 90.2352 137.705 84.4216C137.705 75.7688 140.679 68.8736 146.358 64.412C152.171 59.9504 158.931 59.4096 161.635 59.4096C167.449 59.4096 171.64 61.032 173.939 62.1136C172.992 55.8944 167.449 54.5424 162.717 54.5424C160.419 54.5424 152.712 54.948 147.034 59.8152L145.411 61.1672V39.4L145.952 39.1296C146.223 38.9944 153.388 35.7496 168.531 35.7496C179.347 35.7496 187.459 38.3184 192.731 43.3208C196.923 47.2416 199.086 52.92 199.086 59.4096V106.865H175.967V103.079C173.533 105.242 168.666 108.487 160.824 108.487ZM162.447 82.1232C162.447 85.9088 165.691 89.1536 169.477 89.1536C173.398 89.1536 176.643 85.9088 176.643 82.1232C176.643 78.2024 173.398 74.9576 169.477 74.9576C165.691 74.9576 162.447 78.2024 162.447 82.1232ZM236.502 109.298C225.686 109.298 216.493 105.513 210.138 98.6176C204.325 92.128 201.08 83.0696 201.08 72.9296C201.08 63.06 204.46 53.8664 210.544 47.2416C217.169 40.3464 226.092 36.5608 236.502 36.5608C244.479 36.5608 249.752 38.8592 250.022 38.8592L250.563 39.1296V64.9528L249.076 63.8712C248.941 63.8712 243.398 60.0856 236.638 61.032C229.742 61.9784 225.551 66.5752 225.551 72.9296C225.551 79.4192 230.013 84.2864 236.638 84.8272C241.234 85.2328 244.344 84.4216 246.102 83.7456C247.994 82.9344 248.941 82.1232 248.941 82.1232L250.563 80.5008V107.406L249.887 107.541C249.617 107.676 243.803 109.298 236.502 109.298ZM308.224 12.9008V39.1296H282.13V46.7008H301.058V72.9296H282.13V107H256.037V12.9008H308.224ZM362.29 40.076C362.29 45.484 363.507 48.3232 369.726 48.3232H370.808V70.496H369.726C364.859 70.496 362.56 73.4704 362.56 76.3096V97.6712C362.56 106.054 359.045 111.191 355.936 114.03C352.556 117.275 347.959 119.303 344.038 119.303H329.166V96.4544H333.763C336.872 96.4544 338.765 96.3192 338.765 92.804V71.0368C338.765 68.0624 339.847 65.4936 341.875 63.4656C343.903 61.4376 346.877 60.2208 349.581 59.4096C342.145 57.1112 338.765 51.2976 338.765 46.9712V27.908C338.765 24.1224 336.737 22.5 334.844 22.5H329.166V0.0568013H345.525C356.476 0.0568013 362.29 10.8728 362.29 18.8496V40.076Z" fill="black"/>
</svg>
