<svg width="687" height="120" viewBox="0 0 687 120" fill="none" xmlns="http://www.w3.org/2000/svg">
<path d="M9.2216 40.076V18.8496C9.2216 10.8728 15.0352 0.0568013 25.9864 0.0568013H42.3456V22.5H36.6672C34.7744 22.5 32.7464 24.1224 32.7464 27.908V46.9712C32.7464 51.2976 29.3664 57.1112 21.9304 59.4096C24.6344 60.2208 27.6088 61.4376 29.6368 63.4656C31.6648 65.4936 32.7464 68.0624 32.7464 71.0368V92.804C32.7464 96.3192 34.6392 96.4544 37.7488 96.4544H42.3456V119.303H27.4736C23.5528 119.303 18.956 117.275 15.576 114.03C12.4664 111.191 8.9512 106.054 8.9512 97.6712V76.3096C8.9512 73.4704 6.6528 70.496 1.7856 70.496H0.704V48.3232H1.7856C8.0048 48.3232 9.2216 45.484 9.2216 40.076ZM133.694 12.9008V107H107.736V72.7944H89.8895V107H63.9311V12.9008H89.8895V46.836H107.736V12.9008H133.694ZM160.824 108.487C151.901 108.487 146.493 104.161 143.519 100.646C139.868 96.184 137.705 90.2352 137.705 84.4216C137.705 75.7688 140.679 68.8736 146.358 64.412C152.171 59.9504 158.931 59.4096 161.635 59.4096C167.449 59.4096 171.64 61.032 173.939 62.1136C172.992 55.8944 167.449 54.5424 162.717 54.5424C160.419 54.5424 152.712 54.948 147.034 59.8152L145.411 61.1672V39.4L145.952 39.1296C146.223 38.9944 153.388 35.7496 168.531 35.7496C179.347 35.7496 187.459 38.3184 192.731 43.3208C196.923 47.2416 199.086 52.92 199.086 59.4096V106.865H175.967V103.079C173.533 105.242 168.666 108.487 160.824 108.487ZM162.447 82.1232C162.447 85.9088 165.691 89.1536 169.477 89.1536C173.398 89.1536 176.643 85.9088 176.643 82.1232C176.643 78.2024 173.398 74.9576 169.477 74.9576C165.691 74.9576 162.447 78.2024 162.447 82.1232ZM236.502 109.298C225.686 109.298 216.493 105.513 210.138 98.6176C204.325 92.128 201.08 83.0696 201.08 72.9296C201.08 63.06 204.46 53.8664 210.544 47.2416C217.169 40.3464 226.092 36.5608 236.502 36.5608C244.479 36.5608 249.752 38.8592 250.022 38.8592L250.563 39.1296V64.9528L249.076 63.8712C248.941 63.8712 243.398 60.0856 236.638 61.032C229.742 61.9784 225.551 66.5752 225.551 72.9296C225.551 79.4192 230.013 84.2864 236.638 84.8272C241.234 85.2328 244.344 84.4216 246.102 83.7456C247.994 82.9344 248.941 82.1232 248.941 82.1232L250.563 80.5008V107.406L249.887 107.541C249.617 107.676 243.803 109.298 236.502 109.298ZM292 107L279.697 81.312V107H255.361V12.9008H279.697V59.5448L289.837 37.372H317.012L301.193 70.3608L320.257 107H292ZM678.373 40.076C678.373 45.484 679.59 48.3232 685.809 48.3232H686.89V70.496H685.809C680.942 70.496 678.643 73.4704 678.643 76.3096V97.6712C678.643 106.054 675.128 111.191 672.018 114.03C668.638 117.275 664.042 119.303 660.121 119.303H645.249V96.4544H649.846C652.955 96.4544 654.848 96.3192 654.848 92.804V71.0368C654.848 68.0624 655.93 65.4936 657.958 63.4656C659.986 61.4376 662.96 60.2208 665.664 59.4096C658.228 57.1112 654.848 51.2976 654.848 46.9712V27.908C654.848 24.1224 652.82 22.5 650.927 22.5H645.249V0.0568013H661.608C672.559 0.0568013 678.373 10.8728 678.373 18.8496V40.076Z" fill="black"/>
<path d="M376.484 12.9008V39.1296H350.39V46.7008H369.318V72.9296H350.39V107H324.297V12.9008H376.484ZM405.133 12.9008H380.526V34.3976H405.133V12.9008ZM405.133 107H380.526V37.372H405.133V107ZM443.653 109.434C434.595 109.434 425.671 105.783 419.317 99.6992C412.287 92.9392 408.501 83.6104 408.501 73.3352C408.501 59.1392 414.315 50.4864 419.317 45.7544C425.671 39.6704 434.595 36.4256 443.518 36.8312C463.663 37.7776 471.099 50.7568 473.803 61.5728L473.938 62.2488L442.031 86.5848C443.383 86.9904 444.735 87.1256 446.087 86.9904C458.119 86.1792 465.961 75.6336 466.096 75.4984L467.448 73.7408L472.18 97.9416L471.91 98.3472C471.504 98.7528 462.04 109.434 443.653 109.434ZM433.648 61.9784C431.215 64.5472 429.998 68.0624 430.133 71.7128C430.133 72.1184 430.268 72.524 430.268 72.9296L447.844 59.68C446.763 59.1392 444.87 58.1928 441.895 58.1928C438.921 58.1928 435.947 59.5448 433.648 61.9784ZM490.316 83.2048C490.316 80.636 488.153 78.4728 485.584 75.7688C481.528 71.5776 476.661 66.44 476.661 57.1112C476.661 52.1088 478.689 47.2416 482.339 43.456C485.449 40.2112 491.127 36.4256 500.726 36.4256C508.838 36.4256 514.382 38.5888 514.652 38.5888L515.328 38.8592V60.356L513.706 59.4096C513.03 58.8688 509.92 57.7872 506.81 57.7872C504.106 57.7872 502.214 59.4096 502.214 61.5728C502.214 64.1416 504.647 66.5752 507.486 69.5496C511.678 73.876 516.95 79.284 516.95 87.8016C516.95 102.538 505.053 109.163 493.29 109.163C484.232 109.163 478.148 106.459 477.878 106.324L477.202 106.054V83.4752L478.824 84.5568C478.824 84.5568 481.798 86.5848 486.395 86.5848C489.099 86.5848 490.316 85.5032 490.316 83.2048ZM525.381 82.664L525.517 59.004H519.703V37.6424H525.517L525.652 17.9032H550.123V37.6424H559.317V59.004H550.123V79.96C550.123 81.1768 550.393 85.2328 554.314 85.2328C556.613 85.2328 558.641 83.7456 558.641 83.7456L560.263 82.7992V105.918L559.722 106.189C559.452 106.324 554.585 108.893 548.636 108.893C533.223 108.893 525.381 99.9696 525.381 82.664ZM586.097 108.487C577.174 108.487 571.766 104.161 568.791 100.646C565.141 96.184 562.978 90.2352 562.978 84.4216C562.978 75.7688 565.952 68.8736 571.63 64.412C577.444 59.9504 584.204 59.4096 586.908 59.4096C592.722 59.4096 596.913 61.032 599.211 62.1136C598.265 55.8944 592.722 54.5424 587.99 54.5424C585.691 54.5424 577.985 54.948 572.306 59.8152L570.684 61.1672V39.4L571.225 39.1296C571.495 38.9944 578.661 35.7496 593.803 35.7496C604.619 35.7496 612.731 38.3184 618.004 43.3208C622.195 47.2416 624.358 52.92 624.358 59.4096V106.865H601.239V103.079C598.806 105.242 593.938 108.487 586.097 108.487ZM587.719 82.1232C587.719 85.9088 590.964 89.1536 594.75 89.1536C598.67 89.1536 601.915 85.9088 601.915 82.1232C601.915 78.2024 598.67 74.9576 594.75 74.9576C590.964 74.9576 587.719 78.2024 587.719 82.1232Z" fill="#FF0000"/>
</svg>
